<svg enable-background="new 0 0 426.5 426.5" version="1.1" viewBox="0 0 426.5 426.5" xml:space="preserve" xmlns="http://www.w3.org/2000/svg">
<style type="text/css">
	.st0{fill:#858580;}
	.st1{fill:#FFFFFF;}
</style>
<g transform="translate(-1.8072 9.036)" fill="#fff">
	<path class="st1" d="m125.1 248c0 13.9-2.5 24.4-7.3 31.2-4.5 6.2-11 9.2-19.9 9.2-9.1 0-15.8-3.1-20.6-9.4-5.1-6.7-7.7-17-7.7-30.6v-124h-25v122.7c0 20.1 4.5 36 13.4 47.2 9.2 11.6 22.6 17.4 39.8 17.4 23.8 0 52.1-11.2 52.1-64.6v-122.7h-24.8v123.6z"/>
	<path class="st1" d="m237.6 144.9c8.1 0 15.5 1.9 21.8 5.6l5.3 3.1 11.9-20.7-5.3-3c-9.5-5.4-20.8-8.1-33.4-8.1-20.7 0-37.2 8.8-49.1 26.3-11.4 16.7-17.2 39.7-17.2 68.4 0 19.1 2.6 35.9 7.8 49.9 5.3 14.4 13 25.7 22.9 33.5 10.1 7.9 22 11.9 35.4 11.9 11.9 0 21.8-2 29.5-6l3.2-1.7v-23.7l-8.6 3.9c-6.3 2.9-14 4.3-23 4.3-8.2 0-15.2-2.6-21.4-8-6.4-5.5-11.5-13.8-15-24.4-3.7-11.1-5.5-24.3-5.5-39.4 0-23.1 4-41.3 11.8-54 7.3-12.1 16.7-17.9 28.9-17.9z"/>
	<path class="st1" d="m374.5 226.5c-6.5-8.4-16.8-15.7-30.4-21.7-14.3-6.6-20.3-11.8-22.8-14.9-3.4-4.2-5.1-10.6-5.1-18.8 0-7.9 2.3-14 7-18.7s10.8-6.9 18.6-6.9c9 0 18.1 2.1 26.8 6.2l5.6 2.6 9.8-22-5.2-2.6c-3.9-1.9-9-3.7-15.5-5.3s-13.7-2.4-21.5-2.4c-9.1 0-17.7 2.1-25.3 6.2-7.8 4.2-14 10.1-18.4 17.7-4.3 7.5-6.5 16.2-6.5 25.7 0 8.6 1.3 16.1 4 22.4 2.7 6.4 6.9 12.1 12.4 16.9 5.3 4.6 13 9.2 23.5 14 14.3 6.4 20.5 11.7 23.1 15 3.5 4.5 5.3 10.8 5.3 18.9 0 8.8-2.5 15.8-7.7 21.4-5.1 5.5-11.5 8.1-19.5 8.1-6.1 0-12.3-0.6-18.6-1.9-6.1-1.2-11.2-2.9-15.2-4.9l-8.8-4.4v26.3l3.6 1.6c9.9 4.3 23 6.5 39 6.5 15 0 27.5-5 37.3-15 9.8-9.9 14.7-22.9 14.7-38.7 0-12-3.4-22.6-10.2-31.3z"/>
</g>
</svg>
